<svg width="81" height="81" viewBox="0 0 81 81" fill="none" xmlns="http://www.w3.org/2000/svg">
<path d="M64.3659 47.3492V77.1344C64.3659 79.1075 62.7699 80.7161 60.7842 80.7161H20.5554C18.5823 80.7161 16.9736 79.1201 16.9736 77.1344V47.3492C31.3258 57.0514 47.1232 57.0514 64.3659 47.3492Z" fill="#FF003B"/>
<path d="M28.8373 69.4682C28.3975 69.2922 27.8068 69.1163 27.103 68.9529C26.5375 68.8272 26.1102 68.7141 25.8086 68.601C25.5069 68.4879 25.243 68.3371 25.0419 68.1486C24.8409 67.9601 24.7529 67.7213 24.7529 67.4196C24.7529 66.9672 24.954 66.6153 25.3813 66.364C25.8086 66.1001 26.3867 65.9744 27.0779 65.9744C27.8194 65.9744 28.5357 66.0875 29.2269 66.3388C29.3275 66.3765 29.4155 66.4017 29.4783 66.4017C29.6668 66.4017 29.8176 66.3263 29.9433 66.188C30.0564 66.0498 30.1192 65.899 30.1192 65.7356C30.1192 65.4214 29.9684 65.2078 29.6794 65.1072C28.875 64.8056 27.9576 64.6548 26.9522 64.6548C26.1982 64.6548 25.5446 64.7805 25.0168 65.0318C24.4764 65.2832 24.0617 65.6351 23.7852 66.0624C23.5087 66.4896 23.3705 66.9798 23.3705 67.5076C23.3705 68.1109 23.5464 68.6136 23.8857 68.978C24.2125 69.3425 24.6146 69.6064 25.0796 69.7949C25.5321 69.9709 26.1102 70.1468 26.8642 70.3479C27.4298 70.4987 27.8445 70.6118 28.1336 70.7124C28.4226 70.8129 28.6614 70.9511 28.8625 71.1271C29.051 71.2905 29.139 71.4915 29.139 71.7429C29.139 72.7357 28.3975 73.2133 26.8642 73.2133C25.9342 73.2133 25.0419 73.0373 24.2376 72.6729C24.1496 72.6352 24.0491 72.6101 23.9486 72.6101C23.76 72.6101 23.5967 72.6855 23.4836 72.8111C23.3705 72.9368 23.3076 73.1002 23.3076 73.2636C23.3076 73.4018 23.3453 73.5275 23.4333 73.6406C23.5087 73.7537 23.6218 73.8417 23.7475 73.8919C24.7529 74.3192 25.8463 74.5455 27.0025 74.5455C27.6937 74.5455 28.3095 74.4324 28.8499 74.1936C29.3903 73.9548 29.8176 73.6406 30.1067 73.2259C30.4083 72.8111 30.5591 72.3336 30.5591 71.8057C30.5591 71.1774 30.3957 70.6621 30.069 70.2851C29.6794 69.9206 29.2898 69.6441 28.8373 69.4682Z" fill="white"/>
<path d="M37.9615 64.7804H31.2253C31.0368 64.7804 30.886 64.8432 30.7603 64.9815C30.6346 65.1072 30.5718 65.2705 30.5718 65.459C30.5718 65.6476 30.6346 65.7984 30.7603 65.924C30.886 66.0497 31.0493 66.1126 31.2253 66.1126H33.9022V73.7788C33.9022 73.9673 33.965 74.1432 34.1033 74.2689C34.2289 74.4072 34.4049 74.47 34.5934 74.47C34.7945 74.47 34.9579 74.3946 35.0961 74.2689C35.2343 74.1307 35.3097 73.9673 35.3097 73.7788V66.1126H37.9741C38.1626 66.1126 38.3134 66.0497 38.4516 65.924C38.5773 65.7984 38.6527 65.635 38.6527 65.459C38.6527 65.2831 38.5899 65.1072 38.4516 64.9815C38.3134 64.8432 38.15 64.7804 37.9615 64.7804Z" fill="white"/>
<path d="M46.4193 65.2706C45.7029 64.8433 44.8483 64.6296 43.8932 64.6296C42.9381 64.6296 42.0835 64.8433 41.3546 65.2706C40.6256 65.6979 40.0601 66.2886 39.6705 67.03C39.2809 67.7715 39.0673 68.6261 39.0547 69.5938C39.0798 70.549 39.2809 71.4161 39.6705 72.145C40.0601 72.8865 40.6256 73.4772 41.3546 73.9045C42.0835 74.3318 42.9381 74.5454 43.8932 74.5454C44.8483 74.5454 45.7029 74.3318 46.4193 73.9045C47.1356 73.4772 47.7012 72.8865 48.1033 72.145C48.5055 71.4036 48.7066 70.5364 48.7317 69.5938C48.7191 68.6513 48.5055 67.7841 48.1033 67.0426C47.7012 66.2886 47.1356 65.6979 46.4193 65.2706ZM43.8932 73.2007C43.1769 73.2007 42.561 73.0373 42.0583 72.7232C41.5431 72.409 41.1535 71.9817 40.877 71.4287C40.6005 70.8883 40.4623 70.2599 40.4623 69.5813C40.4623 68.9026 40.6005 68.2617 40.877 67.7213C41.1409 67.1809 41.5431 66.7536 42.0583 66.4394C42.5736 66.1252 43.1894 65.9618 43.8932 65.9618C44.597 65.9618 45.2128 66.1252 45.7281 66.4394C46.2433 66.7536 46.6455 67.1809 46.9094 67.7213C47.1859 68.2617 47.3242 68.89 47.3242 69.5813C47.3242 70.2599 47.1859 70.8883 46.9094 71.4413C46.6329 71.9817 46.2433 72.4215 45.7281 72.7357C45.2128 73.0499 44.597 73.2007 43.8932 73.2007Z" fill="white"/>
<path d="M57.7429 66.3639C57.5041 65.8989 57.0894 65.5093 56.5364 65.2203C55.9834 64.9312 55.2671 64.7804 54.3999 64.7804H51.3083C51.1072 64.7804 50.9438 64.8558 50.8056 64.994C50.6673 65.1323 50.6045 65.2957 50.6045 65.4967V73.7788C50.6045 73.9799 50.6673 74.1432 50.8056 74.2689C50.9312 74.4072 51.1072 74.47 51.2957 74.47C51.4968 74.47 51.6602 74.3946 51.7984 74.2689C51.9367 74.1307 52.0121 73.9673 52.0121 73.7788V70.9762H54.3873C55.2545 70.9762 55.9708 70.8254 56.5238 70.5363C57.0768 70.2347 57.479 69.8577 57.7303 69.3927C57.9691 68.9277 58.0948 68.425 58.0948 67.8846C58.0948 67.3316 57.9817 66.8289 57.7429 66.3639ZM56.6872 67.872C56.6872 68.3747 56.5112 68.7895 56.1594 69.1162C55.7949 69.4555 55.1665 69.6189 54.2742 69.6189H52.0246V66.1251H54.2742C55.1665 66.1251 55.7949 66.2885 56.1594 66.6278C56.5112 66.9546 56.6872 67.3693 56.6872 67.872Z" fill="white"/>
<path opacity="0.1" d="M60.7214 50.6546V59.4393C60.7214 68.5131 53.3694 75.8526 44.3082 75.8526H18.2305V77.1345C18.2305 78.4164 19.2736 79.4595 20.5555 79.4595H60.7968C62.0787 79.4595 63.1218 78.4164 63.1218 77.1345V49.4607C62.3175 49.888 61.5132 50.265 60.7214 50.6546Z" fill="black"/>
<path opacity="0.1" d="M64.3659 47.3492V52.3386C62.2672 55.2165 60.8847 58.6224 60.4826 62.1664C60.3317 63.5488 60.2438 65.1072 59.1881 66.0121C57.8182 67.1934 55.644 66.5776 54.0103 67.3317C51.7732 68.3496 51.4088 71.3156 50.064 73.3641C48.38 75.9279 45.1501 76.971 42.1088 77.3857C39.0674 77.8005 35.913 77.7879 33.0853 78.9692C32.1176 79.3714 31.2001 79.9746 30.4209 80.7161H20.5554C18.5823 80.7161 16.9736 79.1075 16.9736 77.1344V47.3492C31.3258 57.0514 47.1232 57.0514 64.3659 47.3492Z" fill="white"/>
<path opacity="0.1" d="M46.6708 53.9849C43.7803 55.3673 41.1411 57.4284 39.5827 60.231C38.8035 61.6134 38.2882 63.1718 37.2326 64.3657C34.5934 67.3317 29.7423 66.8667 26.3867 68.9906C24.2251 70.373 22.8804 72.698 21.875 75.0482C21.0958 76.883 20.48 78.7933 19.6003 80.5779C18.0921 80.1757 16.9736 78.7807 16.9736 77.1344V47.3492C26.2611 53.633 36.1643 55.8449 46.6708 53.9849Z" fill="white"/>
<path d="M61.9276 9.08102C50.2021 -2.64452 31.1245 -2.64452 19.4115 9.08102C7.69854 20.8066 7.68597 39.8841 19.4115 51.5971C25.268 57.4536 32.9719 60.3944 40.6758 60.3944C48.3798 60.3944 56.0711 57.4662 61.9402 51.5971C73.6531 39.8716 73.6531 20.794 61.9276 9.08102ZM56.6995 14.3091C64.6422 22.2518 65.4214 34.6686 59.0873 43.5162L27.4925 11.9213C31.4261 9.10616 36.0384 7.67345 40.6758 7.67345C46.4821 7.68602 52.2757 9.88534 56.6995 14.3091ZM24.6396 46.369C16.6969 38.4263 15.9177 26.0095 22.2518 17.162L53.8466 48.7443C44.9991 55.0783 32.5949 54.3117 24.6396 46.369Z" fill="#FF003B"/>
<path opacity="0.1" d="M61.9278 9.08104C55.7446 2.89779 47.5254 -0.0178835 39.4067 0.308873C46.6708 0.610495 53.8594 3.52617 59.4017 9.08104C71.1273 20.794 71.1273 39.8716 59.4017 51.5971C53.8594 57.1394 46.6834 60.0677 39.4067 60.3693C39.8215 60.3819 40.2488 60.407 40.6509 60.407C48.3423 60.407 56.0588 57.4662 61.9153 51.6097C73.6534 39.8716 73.6534 20.794 61.9278 9.08104Z" fill="black"/>
<path opacity="0.1" d="M61.9274 9.08114C50.2019 -2.6444 31.1243 -2.6444 19.4113 9.08114C7.6858 20.8067 7.6858 39.8717 19.4113 51.5972C25.0667 57.2526 32.469 60.1934 39.909 60.382C42.0204 58.2329 43.629 55.6063 44.2449 52.7032C37.3076 53.8091 29.9681 51.6978 24.6395 46.3691C16.6967 38.4264 15.9176 26.0097 22.2516 17.1621L48.1282 43.0387C48.543 42.8251 48.9703 42.5988 49.3599 42.3098C51.157 41.0405 51.9362 38.904 52.2253 36.667L27.4923 11.9214C31.4259 9.10628 36.0508 7.67358 40.6631 7.67358C46.4693 7.67358 52.2755 9.8729 56.6993 14.2967C57.8555 15.4529 58.8735 16.7097 59.703 18.0293C61.5881 16.3955 63.4984 14.8245 65.4463 13.2913C64.4284 11.8209 63.247 10.4007 61.9274 9.08114Z" fill="white"/>
<path opacity="0.1" d="M19.4116 9.08105C8.12592 20.3667 7.69863 38.4389 18.1297 50.2273C19.8389 48.2919 21.2842 46.1051 22.3901 43.7424C16.6216 35.8625 16.5839 25.0796 22.2644 17.1494L28.234 23.119C30.735 22.3147 32.9846 21.0454 35.0708 19.4996L27.4925 11.9213C31.4262 9.10618 36.0511 7.67348 40.6634 7.67348C42.2971 7.67348 43.9184 7.83686 45.5144 8.20132C47.0477 6.0774 48.5558 3.90321 50.1519 1.81699C39.6957 -1.63909 27.7062 0.773885 19.4116 9.08105Z" fill="white"/>
<path d="M27.4422 24.8911V37.6221H1.94261C1.02518 37.6221 0.283691 36.8806 0.283691 35.9631V26.55C0.283691 25.6326 1.02518 24.8911 1.94261 24.8911H27.4422Z" fill="#FF9F3F"/>
<path d="M27.4424 24.8911H77.9012V37.6221H27.4424V24.8911Z" fill="#E6E6E6"/>
<path d="M25.7837 24.8911H29.1015V37.6221H25.7837V24.8911Z" fill="#F15A24"/>
<path opacity="0.05" d="M27.4424 33.2987H77.9012V37.6219H27.4424V33.2987Z" fill="black"/>
<path opacity="0.05" d="M27.4422 33.2987V37.6219H1.94261C1.02518 37.6219 0.283691 36.8805 0.283691 35.963V33.2987H27.4422Z" fill="black"/>
<path opacity="0.1" d="M77.901 24.8911V33.5125C72.874 34.2288 67.7213 34.0906 62.7571 33.0475C59.5398 32.3814 56.2471 31.3383 53.0549 32.0421C50.089 32.683 47.5629 34.7566 44.5718 35.3348C39.3563 36.3653 34.1282 32.6704 28.8372 33.4119C25.5319 33.8769 22.6414 36.0637 19.3361 36.6041C16.8854 37.0188 14.3719 36.5161 11.9338 35.9883C9.49572 35.473 6.98221 34.9452 4.53153 35.3222C3.13653 35.5484 1.7541 36.1139 0.660719 37.0062C0.434502 36.7423 0.283691 36.3653 0.283691 35.9631V26.5375C0.283691 25.6326 1.02518 24.8785 1.94261 24.8785H77.901V24.8911Z" fill="white"/>
<path opacity="0.1" d="M66.7538 24.8911C61.0104 27.2035 55.3299 29.5662 49.2723 28.9253C46.4949 28.6488 43.7928 27.7314 40.9903 27.744C36.1769 27.7942 31.3007 30.5968 26.7638 29.0007C25.0797 28.41 23.5339 27.2287 21.7619 27.2412C19.462 27.2538 17.6774 29.2269 15.5158 30.0187C12.022 31.3257 8.20149 29.4783 4.46892 29.4783C3.01109 29.4783 1.59095 29.7925 0.258789 30.358V26.55C0.258789 25.6452 1.00028 24.8911 1.91771 24.8911H66.7538Z" fill="white"/>
<path d="M77.6625 38.0493C77.3357 37.9739 77.0216 37.6723 76.9964 37.2827C76.9587 36.6794 77.562 36.2898 77.7253 35.7243C77.8887 35.1713 77.6122 34.5681 77.2729 34.1157C76.9461 33.6632 76.544 33.2485 76.4057 32.683C76.2675 32.1174 76.5943 31.3634 77.097 31.4136C77.5117 30.6596 77.2226 29.629 76.7702 28.8875C76.3178 28.1461 75.7397 27.4925 75.526 26.6128C75.3124 25.7331 75.7522 24.5769 76.5314 24.5894C76.8582 24.602 77.1598 24.8157 77.4866 24.8031C78.1526 24.7654 78.6051 23.8102 79.2711 23.8731C79.6482 23.9108 79.9498 24.2752 80.0755 24.69C80.2011 25.1047 80.176 25.5571 80.1634 25.997C80.0755 27.9073 79.9875 29.805 79.8995 31.7152C79.8744 32.2054 79.8618 32.7207 80.0252 33.1857C80.1634 33.5627 80.4148 33.8643 80.5782 34.2288C80.7416 34.5932 80.7792 35.0834 80.5153 35.3598C80.2011 35.6992 79.5979 35.5232 79.334 35.9254C79.1706 36.1642 79.2083 36.5035 79.2837 36.7925C79.3466 37.0816 79.4345 37.3832 79.3591 37.6723C79.2209 38.2378 78.027 38.1373 77.6625 38.0493Z" fill="#343434"/>
<path d="M22.2549 17.1653L27.4883 11.9319L59.0754 43.519L53.842 48.7524L22.2549 17.1653Z" fill="#FF003B"/>
<path opacity="0.1" d="M22.2642 17.1494L48.1408 43.026C48.5555 42.8123 48.9828 42.5861 49.3724 42.2971C51.1696 41.0278 51.9488 38.8913 52.2378 36.6542L27.4923 11.9213L22.2642 17.1494Z" fill="white"/>
<path opacity="0.1" d="M22.2642 17.1494L28.2338 23.119C30.7347 22.3146 32.9843 21.0453 35.0705 19.4995L27.4923 11.9213L22.2642 17.1494Z" fill="white"/>
</svg>
